<svg xmlns="http://www.w3.org/2000/svg" viewBox="0 0 256 256">
  <rect width="256" height="256" fill="#0a1628"/>
  <path d="M128 40 L100 60 L100 100 L80 120 L80 180 L100 200 L156 200 L176 180 L176 120 L156 100 L156 60 Z" fill="#1a3a52" stroke="#2d5a7b" stroke-width="2"/>
  <rect x="100" y="70" width="56" height="50" fill="#0f2942"/>
  <path d="M128 60 L140 50 L116 50 Z" fill="#2d5a7b"/>
  <rect x="105" y="95" width="18" height="18" rx="2" fill="#00ffff" opacity="0.9">
    <animate attributeName="opacity" values="0.9;1;0.9" dur="2s" repeatCount="indefinite"/>
  </rect>
  <rect x="133" y="95" width="18" height="18" rx="2" fill="#00ffff" opacity="0.9">
    <animate attributeName="opacity" values="0.9;1;0.9" dur="2s" repeatCount="indefinite"/>
  </rect>
  <rect x="110" y="140" width="36" height="4" rx="2" fill="#2d5a7b"/>
  <rect x="90" y="165" width="12" height="25" fill="#1a3a52"/>
  <rect x="154" y="165" width="12" height="25" fill="#1a3a52"/>
  <circle cx="114" cy="104" r="6" fill="#00ffff" opacity="0.6"/>
  <circle cx="142" cy="104" r="6" fill="#00ffff" opacity="0.6"/>
</svg>